# xmcd
#
# Track frame offsets:
# 183
# 15223
# 26188
# 36538
# 41875
# 67513
# 96525
# 107790
# 138920
# 148260
# 162483
# 186948
# 201128
#
# Disc length: 3198 seconds
#
#
# Revision: 1
# Processed by: cddbd v1.5.2PL0 Copyright (c) Steve Scherf et al.
# Submitted via: FreeRIP 2.951 
#
DISCID=bd0c7c0d
DTITLE=Jeff Gardner - Spirit Call
DYEAR=1985
DGENRE=Jazz
TTITLE0=Preludio Para Rita
TTITLE1=Baiaonette
TTITLE2=Olhos De Amor
TTITLE3=Hommage a Stravinsky
TTITLE4=Luz da Favela
TTITLE5=Spirit Call
TTITLE6=Blues for Victor
TTITLE7=Sambando e Chorando
TTITLE8=Laughing Death in a Limousine on Pensylvania Avenue
TTITLE9=For Bill
TTITLE10=Corrida
TTITLE11=Joanne
TTITLE12=Spirit Call
EXTD=
EXTT0=
EXTT1=
EXTT2=
EXTT3=
EXTT4=
EXTT5=
EXTT6=
EXTT7=
EXTT8=
EXTT9=
EXTT10=
EXTT11=
EXTT12=
PLAYORDER=
